<?xml version='1.0' encoding='utf-8'?>
<svg xmlns="http://www.w3.org/2000/svg" width="848" height="1264" viewBox="0 0 848 1264">
  <g id="muscles" fill="#C5BFB0" stroke="#8C8070" stroke-width="1">
    <path id="muscle_1" class="muscle" d="M 415 35 L 359 118 L 377 206 L 251 287 L 188 619 L 138 680 L 163 675 L 169 742 L 216 726 L 307 422 L 289 738 L 330 1145 L 294 1224 L 350 1239 L 381 1200 L 423 683 L 467 1199 L 507 1239 L 554 1224 L 519 1150 L 559 745 L 543 420 L 632 726 L 679 742 L 684 673 L 710 678 L 660 619 L 598 289 L 471 206 L 478 73 Z" fill="#C5BFB0" stroke="#8C8070" stroke-width="1.5" fill-opacity="0.85" style="cursor:pointer" onmouseover="this.style.fill='#E8A87C'" onmouseout="this.style.fill='#C5BFB0'" />
    <path id="muscle_2" class="muscle" d="M 479 1135 L 501 1138 L 514 1145 L 517 1156 L 516 1176 L 529 1197 L 549 1216 L 548 1224 L 543 1214 L 537 1212 L 544 1223 L 540 1229 L 537 1220 L 528 1212 L 535 1224 L 534 1230 L 529 1231 L 526 1221 L 520 1213 L 517 1213 L 524 1225 L 524 1230 L 517 1233 L 513 1222 L 503 1215 L 505 1221 L 511 1226 L 511 1230 L 505 1235 L 499 1235 L 484 1222 L 482 1200 L 479 1199 L 477 1206 L 471 1196 L 475 1181 L 477 1184 L 473 1154 Z" fill="#C5BFB0" stroke="#8C8070" stroke-width="1.5" fill-opacity="0.85" style="cursor:pointer" onmouseover="this.style.fill='#E8A87C'" onmouseout="this.style.fill='#C5BFB0'" />
    <path id="muscle_3" class="muscle" d="M 370 1136 L 375 1154 L 371 1184 L 375 1186 L 377 1198 L 370 1207 L 367 1200 L 364 1222 L 352 1234 L 343 1235 L 337 1230 L 338 1225 L 345 1218 L 343 1214 L 336 1221 L 333 1232 L 327 1233 L 324 1226 L 331 1216 L 331 1213 L 328 1213 L 322 1222 L 321 1229 L 316 1231 L 313 1225 L 320 1216 L 319 1212 L 312 1219 L 309 1229 L 304 1226 L 311 1214 L 309 1211 L 300 1224 L 298 1222 L 300 1215 L 320 1196 L 333 1174 L 331 1157 L 334 1145 L 347 1138 L 359 1135 Z" fill="#C5BFB0" stroke="#8C8070" stroke-width="1.5" fill-opacity="0.85" style="cursor:pointer" onmouseover="this.style.fill='#E8A87C'" onmouseout="this.style.fill='#C5BFB0'" />
    <path id="muscle_4" class="muscle" d="M 485 1057 L 486 1066 L 481 1108 L 479 1115 L 476 1098 L 477 1116 L 480 1120 L 478 1121 L 479 1125 L 476 1140 L 475 1106 L 469 1068 L 470 1060 L 472 1075 L 475 1079 L 474 1089 L 476 1096 L 475 1081 Z" fill="#C5BFB0" stroke="#8C8070" stroke-width="1.5" fill-opacity="0.85" style="cursor:pointer" onmouseover="this.style.fill='#E8A87C'" onmouseout="this.style.fill='#C5BFB0'" />
    <path id="muscle_5" class="muscle" d="M 488 1005 L 490 1009 L 490 1028 L 488 1030 L 487 1044 L 483 1053 L 481 1055 L 474 1074 L 472 1067 L 472 1060 L 470 1053 L 470 1048 L 476 1039 L 485 1021 L 487 1015 L 486 1009 Z" fill="#C5BFB0" stroke="#8C8070" stroke-width="1.5" fill-opacity="0.85" style="cursor:pointer" onmouseover="this.style.fill='#E8A87C'" onmouseout="this.style.fill='#C5BFB0'" />
    <path id="muscle_6" class="muscle" d="M 360 1005 L 362 1008 L 361 1015 L 363 1018 L 363 1021 L 371 1037 L 379 1049 L 377 1055 L 376 1069 L 374 1073 L 368 1057 L 365 1053 L 361 1044 L 361 1026 L 358 1023 L 358 1012 Z" fill="#C5BFB0" stroke="#8C8070" stroke-width="1.5" fill-opacity="0.85" style="cursor:pointer" onmouseover="this.style.fill='#E8A87C'" onmouseout="this.style.fill='#C5BFB0'" />
    <path id="muscle_7" class="muscle" d="M 534 968 L 538 989 L 536 1029 L 518 1110 L 514 1140 L 504 1136 L 509 1104 L 508 1098 L 528 1029 L 532 1005 Z" fill="#C5BFB0" stroke="#8C8070" stroke-width="1.5" fill-opacity="0.85" style="cursor:pointer" onmouseover="this.style.fill='#E8A87C'" onmouseout="this.style.fill='#C5BFB0'" />
    <path id="muscle_8" class="muscle" d="M 315 963 L 318 1018 L 341 1101 L 339 1102 L 344 1130 L 342 1137 L 334 1139 L 333 1137 L 331 1153 L 329 1128 L 330 1121 L 333 1135 L 332 1121 L 311 1018 L 310 992 Z" fill="#C5BFB0" stroke="#8C8070" stroke-width="1.5" fill-opacity="0.85" style="cursor:pointer" onmouseover="this.style.fill='#E8A87C'" onmouseout="this.style.fill='#C5BFB0'" />
    <path id="muscle_9" class="muscle" d="M 466 944 L 481 970 L 487 993 L 487 1004 L 483 1017 L 469 1042 L 467 1040 L 461 1020 L 458 1001 L 457 1011 L 455 1002 L 456 980 L 458 972 L 459 991 L 461 967 Z" fill="#C5BFB0" stroke="#8C8070" stroke-width="1.5" fill-opacity="0.85" style="cursor:pointer" onmouseover="this.style.fill='#E8A87C'" onmouseout="this.style.fill='#C5BFB0'" />
    <path id="muscle_10" class="muscle" d="M 382 944 L 384 947 L 389 978 L 390 971 L 392 979 L 393 1004 L 391 1012 L 389 1003 L 389 1011 L 382 1038 L 378 1041 L 374 1033 L 375 1030 L 372 1025 L 372 1022 L 366 1012 L 365 1014 L 361 1004 L 361 994 L 367 970 Z" fill="#C5BFB0" stroke="#8C8070" stroke-width="1.5" fill-opacity="0.85" style="cursor:pointer" onmouseover="this.style.fill='#E8A87C'" onmouseout="this.style.fill='#C5BFB0'" />
    <path id="muscle_11" class="muscle" d="M 524 931 L 527 934 L 530 971 L 528 1011 L 497 1131 L 494 1134 L 492 1130 L 499 1089 L 498 1081 L 500 1080 L 498 1070 L 501 1069 L 501 1038 L 503 1037 L 506 999 L 513 962 Z" fill="#C5BFB0" stroke="#8C8070" stroke-width="1.5" fill-opacity="0.85" style="cursor:pointer" onmouseover="this.style.fill='#E8A87C'" onmouseout="this.style.fill='#C5BFB0'" />
    <path id="muscle_12" class="muscle" d="M 324 931 L 333 954 L 343 1005 L 345 1034 L 347 1035 L 346 1051 L 349 1052 L 348 1079 L 356 1132 L 352 1133 L 320 1010 L 319 954 L 321 933 Z" fill="#C5BFB0" stroke="#8C8070" stroke-width="1.5" fill-opacity="0.85" style="cursor:pointer" onmouseover="this.style.fill='#E8A87C'" onmouseout="this.style.fill='#C5BFB0'" />
    <path id="muscle_13" class="muscle" d="M 495 832 L 510 833 L 510 861 L 521 879 L 507 925 L 518 915 L 536 846 L 532 922 L 519 934 L 508 970 L 488 1134 L 479 1133 L 489 1067 L 490 992 L 466 935 L 450 857 L 474 926 L 494 942 L 484 899 L 490 939 L 475 920 L 463 880 L 488 875 Z" fill="#C5BFB0" stroke="#8C8070" stroke-width="1.5" fill-opacity="0.85" style="cursor:pointer" onmouseover="this.style.fill='#E8A87C'" onmouseout="this.style.fill='#C5BFB0'" />
    <path id="muscle_14" class="muscle" d="M 472 743 L 474 772 L 477 789 L 486 818 L 489 835 L 489 848 L 486 863 L 478 874 L 472 873 L 465 866 L 460 857 L 458 858 L 454 843 L 454 821 L 457 797 L 465 762 Z" fill="#C5BFB0" stroke="#8C8070" stroke-width="1.5" fill-opacity="0.85" style="cursor:pointer" onmouseover="this.style.fill='#E8A87C'" onmouseout="this.style.fill='#C5BFB0'" />
    <path id="muscle_15" class="muscle" d="M 376 742 L 383 761 L 390 791 L 394 819 L 394 844 L 391 855 L 384 865 L 376 873 L 371 874 L 363 865 L 360 853 L 359 838 L 361 824 L 372 785 Z" fill="#C5BFB0" stroke="#8C8070" stroke-width="1.5" fill-opacity="0.85" style="cursor:pointer" onmouseover="this.style.fill='#E8A87C'" onmouseout="this.style.fill='#C5BFB0'" />
    <path id="muscle_16" class="muscle" d="M 428 679 L 430 714 L 430 682 L 434 679 L 437 680 L 437 721 L 441 747 L 447 766 L 445 776 L 447 786 L 442 786 L 431 728 L 430 736 L 428 728 Z" fill="#C5BFB0" stroke="#8C8070" stroke-width="1.5" fill-opacity="0.85" style="cursor:pointer" onmouseover="this.style.fill='#E8A87C'" onmouseout="this.style.fill='#C5BFB0'" />
    <path id="muscle_17" class="muscle" d="M 410 677 L 418 682 L 419 717 L 420 679 L 422 701 L 420 730 L 418 738 L 416 730 L 413 755 L 405 788 L 402 785 L 402 763 L 407 747 L 411 722 Z" fill="#C5BFB0" stroke="#8C8070" stroke-width="1.5" fill-opacity="0.85" style="cursor:pointer" onmouseover="this.style.fill='#E8A87C'" onmouseout="this.style.fill='#C5BFB0'" />
    <path id="muscle_18" class="muscle" d="M 317 672 L 313 710 L 315 770 L 338 854 L 335 855 L 334 864 L 328 876 L 323 855 L 328 859 L 320 849 L 306 817 L 300 768 L 297 767 L 297 735 L 302 705 Z" fill="#C5BFB0" stroke="#8C8070" stroke-width="1.5" fill-opacity="0.85" style="cursor:pointer" onmouseover="this.style.fill='#E8A87C'" onmouseout="this.style.fill='#C5BFB0'" />
    <path id="muscle_19" class="muscle" d="M 531 671 L 540 688 L 543 701 L 546 703 L 550 730 L 550 770 L 542 818 L 528 849 L 520 859 L 524 862 L 520 876 L 510 848 L 511 844 L 513 846 L 517 823 L 528 794 L 534 763 L 535 706 Z" fill="#C5BFB0" stroke="#8C8070" stroke-width="1.5" fill-opacity="0.85" style="cursor:pointer" onmouseover="this.style.fill='#E8A87C'" onmouseout="this.style.fill='#C5BFB0'" />
    <path id="muscle_20" class="muscle" d="M 454 651 L 456 666 L 465 690 L 455 722 L 448 755 L 445 750 L 440 720 L 440 676 L 447 665 L 450 654 Z" fill="#C5BFB0" stroke="#8C8070" stroke-width="1.5" fill-opacity="0.85" style="cursor:pointer" onmouseover="this.style.fill='#E8A87C'" onmouseout="this.style.fill='#C5BFB0'" />
    <path id="muscle_21" class="muscle" d="M 396 650 L 401 665 L 404 671 L 408 675 L 408 722 L 404 746 L 401 755 L 399 753 L 397 738 L 391 714 L 382 688 L 388 678 L 393 662 L 394 652 Z" fill="#C5BFB0" stroke="#8C8070" stroke-width="1.5" fill-opacity="0.85" style="cursor:pointer" onmouseover="this.style.fill='#E8A87C'" onmouseout="this.style.fill='#C5BFB0'" />
    <path id="muscle_22" class="muscle" d="M 454 635 L 454 637 L 450 644 L 445 661 L 441 668 L 433 676 L 429 678 L 419 678 L 415 676 L 407 668 L 404 663 L 394 632 L 407 632 L 417 635 L 423 634 L 431 635 L 437 634 L 444 631 Z" fill="#C5BFB0" stroke="#8C8070" stroke-width="1.5" fill-opacity="0.85" style="cursor:pointer" onmouseover="this.style.fill='#E8A87C'" onmouseout="this.style.fill='#C5BFB0'" />
    <path id="muscle_23" class="muscle" d="M 466 623 L 468 629 L 468 633 L 470 641 L 473 647 L 472 658 L 470 668 L 469 669 L 469 672 L 471 673 L 469 677 L 462 664 L 460 657 L 457 655 L 457 650 L 455 643 L 455 641 L 459 633 L 464 625 Z" fill="#C5BFB0" stroke="#8C8070" stroke-width="1.5" fill-opacity="0.85" style="cursor:pointer" onmouseover="this.style.fill='#E8A87C'" onmouseout="this.style.fill='#C5BFB0'" />
    <path id="muscle_24" class="muscle" d="M 382 623 L 384 625 L 389 633 L 393 641 L 393 643 L 391 650 L 391 656 L 387 661 L 382 673 L 379 676 L 377 671 L 379 668 L 378 667 L 376 657 L 376 647 L 379 638 Z" fill="#C5BFB0" stroke="#8C8070" stroke-width="1.5" fill-opacity="0.85" style="cursor:pointer" onmouseover="this.style.fill='#E8A87C'" onmouseout="this.style.fill='#C5BFB0'" />
    <path id="muscle_25" class="muscle" d="M 626 621 L 655 615 L 657 624 L 684 646 L 705 679 L 698 680 L 676 660 L 661 660 L 643 649 L 657 662 L 678 666 L 693 724 L 690 727 L 668 687 L 678 733 L 675 739 L 669 735 L 657 692 L 654 698 L 659 734 L 655 737 L 651 733 L 642 692 L 639 692 L 641 721 L 638 725 L 634 721 L 619 659 L 618 626 Z" fill="#C5BFB0" stroke="#8C8070" stroke-width="1.5" fill-opacity="0.85" style="cursor:pointer" onmouseover="this.style.fill='#E8A87C'" onmouseout="this.style.fill='#C5BFB0'" />
    <path id="muscle_26" class="muscle" d="M 222 621 L 229 628 L 229 660 L 215 719 L 206 724 L 210 697 L 206 693 L 197 733 L 192 737 L 189 734 L 194 692 L 191 693 L 180 733 L 173 739 L 167 733 L 169 727 L 171 732 L 180 687 L 158 727 L 155 724 L 170 666 L 189 663 L 205 649 L 187 660 L 168 662 L 150 680 L 143 678 L 164 646 L 190 625 L 193 615 Z" fill="#C5BFB0" stroke="#8C8070" stroke-width="1.5" fill-opacity="0.85" style="cursor:pointer" onmouseover="this.style.fill='#E8A87C'" onmouseout="this.style.fill='#C5BFB0'" />
    <path id="muscle_27" class="muscle" d="M 507 607 L 527 672 L 532 708 L 529 753 L 522 793 L 505 833 L 500 834 L 492 824 L 482 784 L 478 738 L 479 724 L 497 662 Z" fill="#C5BFB0" stroke="#8C8070" stroke-width="1.5" fill-opacity="0.85" style="cursor:pointer" onmouseover="this.style.fill='#E8A87C'" onmouseout="this.style.fill='#C5BFB0'" />
    <path id="muscle_28" class="muscle" d="M 341 606 L 370 736 L 366 785 L 345 836 L 353 832 L 360 875 L 385 882 L 365 932 L 356 937 L 364 899 L 355 943 L 374 926 L 398 859 L 382 936 L 358 992 L 368 1134 L 358 1128 L 336 953 L 314 925 L 313 843 L 330 914 L 342 925 L 327 878 L 343 836 L 314 746 L 319 683 Z" fill="#C5BFB0" stroke="#8C8070" stroke-width="1.5" fill-opacity="0.85" style="cursor:pointer" onmouseover="this.style.fill='#E8A87C'" onmouseout="this.style.fill='#C5BFB0'" />
    <path id="muscle_29" class="muscle" d="M 507 576 L 507 591 L 492 670 L 457 781 L 450 842 L 446 801 L 454 740 L 500 587 Z" fill="#C5BFB0" stroke="#8C8070" stroke-width="1.5" fill-opacity="0.85" style="cursor:pointer" onmouseover="this.style.fill='#E8A87C'" onmouseout="this.style.fill='#C5BFB0'" />
    <path id="muscle_30" class="muscle" d="M 341 576 L 347 582 L 394 739 L 401 786 L 401 827 L 403 792 L 405 795 L 407 787 L 399 871 L 394 795 L 358 678 Z" fill="#C5BFB0" stroke="#8C8070" stroke-width="1.5" fill-opacity="0.85" style="cursor:pointer" onmouseover="this.style.fill='#E8A87C'" onmouseout="this.style.fill='#C5BFB0'" />
    <path id="muscle_31" class="muscle" d="M 519 565 L 521 567 L 522 576 L 529 595 L 537 609 L 538 605 L 548 652 L 552 685 L 551 693 L 532 658 L 523 645 L 514 624 L 511 610 L 510 588 L 512 577 L 514 578 L 515 569 Z" fill="#C5BFB0" stroke="#8C8070" stroke-width="1.5" fill-opacity="0.85" style="cursor:pointer" onmouseover="this.style.fill='#E8A87C'" onmouseout="this.style.fill='#C5BFB0'" />
    <path id="muscle_32" class="muscle" d="M 330 565 L 333 568 L 335 578 L 336 576 L 337 579 L 335 580 L 335 584 L 340 585 L 335 621 L 326 643 L 312 665 L 301 689 L 297 694 L 296 687 L 301 647 L 310 606 L 312 609 L 321 591 L 325 580 L 327 567 Z" fill="#C5BFB0" stroke="#8C8070" stroke-width="1.5" fill-opacity="0.85" style="cursor:pointer" onmouseover="this.style.fill='#E8A87C'" onmouseout="this.style.fill='#C5BFB0'" />
    <path id="muscle_33" class="muscle" d="M 471 519 L 469 522 L 471 525 L 471 539 L 475 544 L 472 545 L 470 563 L 463 588 L 447 623 L 438 630 L 428 632 L 426 630 L 425 568 L 427 566 L 429 534 L 439 524 L 467 521 L 466 519 Z" fill="#C5BFB0" stroke="#8C8070" stroke-width="1.5" fill-opacity="0.85" style="cursor:pointer" onmouseover="this.style.fill='#E8A87C'" onmouseout="this.style.fill='#C5BFB0'" />
    <path id="muscle_34" class="muscle" d="M 378 518 L 381 519 L 381 521 L 410 524 L 421 538 L 420 565 L 423 566 L 423 589 L 421 571 L 422 630 L 420 632 L 410 630 L 401 623 L 386 590 L 376 551 L 375 532 L 377 531 L 377 525 L 379 522 L 377 521 Z" fill="#C5BFB0" stroke="#8C8070" stroke-width="1.5" fill-opacity="0.85" style="cursor:pointer" onmouseover="this.style.fill='#E8A87C'" onmouseout="this.style.fill='#C5BFB0'" />
    <path id="muscle_35" class="muscle" d="M 569 496 L 582 528 L 590 556 L 616 605 L 621 620 L 619 621 L 616 620 L 608 598 L 576 539 L 571 525 L 567 506 L 567 500 Z" fill="#C5BFB0" stroke="#8C8070" stroke-width="1.5" fill-opacity="0.85" style="cursor:pointer" onmouseover="this.style.fill='#E8A87C'" onmouseout="this.style.fill='#C5BFB0'" />
    <path id="muscle_36" class="muscle" d="M 279 496 L 281 500 L 281 507 L 273 537 L 239 601 L 232 620 L 229 621 L 227 619 L 228 614 L 255 563 L 263 542 L 266 528 Z" fill="#C5BFB0" stroke="#8C8070" stroke-width="1.5" fill-opacity="0.85" style="cursor:pointer" onmouseover="this.style.fill='#E8A87C'" onmouseout="this.style.fill='#C5BFB0'" />
    <path id="muscle_37" class="muscle" d="M 520 488 L 527 525 L 528 515 L 530 523 L 529 555 L 526 553 L 526 546 L 523 545 L 527 539 L 526 530 L 526 538 L 519 549 L 513 555 L 514 557 L 508 560 L 499 568 L 489 572 L 484 564 L 486 527 L 490 520 L 515 496 Z" fill="#C5BFB0" stroke="#8C8070" stroke-width="1.5" fill-opacity="0.85" style="cursor:pointer" onmouseover="this.style.fill='#E8A87C'" onmouseout="this.style.fill='#C5BFB0'" />
    <path id="muscle_38" class="muscle" d="M 328 488 L 334 497 L 359 521 L 362 526 L 364 549 L 364 565 L 362 570 L 359 572 L 357 572 L 346 566 L 330 550 L 323 540 L 322 537 L 322 518 Z" fill="#C5BFB0" stroke="#8C8070" stroke-width="1.5" fill-opacity="0.85" style="cursor:pointer" onmouseover="this.style.fill='#E8A87C'" onmouseout="this.style.fill='#C5BFB0'" />
    <path id="muscle_39" class="muscle" d="M 269 482 L 277 491 L 266 521 L 257 538 L 243 557 L 228 581 L 227 579 L 232 569 L 242 540 L 251 504 L 257 495 Z" fill="#C5BFB0" stroke="#8C8070" stroke-width="1.5" fill-opacity="0.85" style="cursor:pointer" onmouseover="this.style.fill='#E8A87C'" onmouseout="this.style.fill='#C5BFB0'" />
    <path id="muscle_40" class="muscle" d="M 578 481 L 591 495 L 597 504 L 607 543 L 614 561 L 614 564 L 622 580 L 621 583 L 613 569 L 590 536 L 581 519 L 571 491 Z" fill="#C5BFB0" stroke="#8C8070" stroke-width="1.5" fill-opacity="0.85" style="cursor:pointer" onmouseover="this.style.fill='#E8A87C'" onmouseout="this.style.fill='#C5BFB0'" />
    <path id="muscle_41" class="muscle" d="M 525 448 L 522 463 L 521 479 L 515 489 L 504 501 L 503 499 L 500 500 L 498 502 L 491 504 L 487 502 L 487 495 L 491 485 L 501 475 L 507 471 L 515 463 L 519 457 L 521 452 Z" fill="#C5BFB0" stroke="#8C8070" stroke-width="1.5" fill-opacity="0.85" style="cursor:pointer" onmouseover="this.style.fill='#E8A87C'" onmouseout="this.style.fill='#C5BFB0'" />
    <path id="muscle_42" class="muscle" d="M 323 448 L 326 451 L 334 464 L 340 470 L 346 474 L 357 485 L 361 495 L 361 502 L 359 504 L 353 503 L 348 500 L 345 501 L 343 500 L 333 489 L 327 478 L 326 462 L 324 453 L 322 450 Z" fill="#C5BFB0" stroke="#8C8070" stroke-width="1.5" fill-opacity="0.85" style="cursor:pointer" onmouseover="this.style.fill='#E8A87C'" onmouseout="this.style.fill='#C5BFB0'" />
    <path id="muscle_43" class="muscle" d="M 526 434 L 523 442 L 517 453 L 513 459 L 509 463 L 507 462 L 501 467 L 493 471 L 489 471 L 487 469 L 487 463 L 488 459 L 490 455 L 497 448 L 508 441 L 517 433 L 521 434 L 522 433 Z" fill="#C5BFB0" stroke="#8C8070" stroke-width="1.5" fill-opacity="0.85" style="cursor:pointer" onmouseover="this.style.fill='#E8A87C'" onmouseout="this.style.fill='#C5BFB0'" />
    <path id="muscle_44" class="muscle" d="M 323 432 L 327 433 L 328 434 L 331 433 L 340 441 L 347 445 L 358 455 L 361 462 L 360 471 L 355 471 L 349 468 L 340 461 L 338 462 L 336 460 L 331 453 L 324 439 L 324 437 L 322 434 Z" fill="#C5BFB0" stroke="#8C8070" stroke-width="1.5" fill-opacity="0.85" style="cursor:pointer" onmouseover="this.style.fill='#E8A87C'" onmouseout="this.style.fill='#C5BFB0'" />
    <path id="muscle_45" class="muscle" d="M 614 430 L 619 451 L 625 462 L 629 490 L 632 544 L 641 582 L 640 585 L 605 523 L 600 505 L 604 471 L 603 464 Z" fill="#C5BFB0" stroke="#8C8070" stroke-width="1.5" fill-opacity="0.85" style="cursor:pointer" onmouseover="this.style.fill='#E8A87C'" onmouseout="this.style.fill='#C5BFB0'" />
    <path id="muscle_46" class="muscle" d="M 234 430 L 246 466 L 244 467 L 248 506 L 238 533 L 208 585 L 207 582 L 217 536 L 221 475 Z" fill="#C5BFB0" stroke="#8C8070" stroke-width="1.5" fill-opacity="0.85" style="cursor:pointer" onmouseover="this.style.fill='#E8A87C'" onmouseout="this.style.fill='#C5BFB0'" />
    <path id="muscle_47" class="muscle" d="M 524 416 L 521 419 L 517 426 L 515 425 L 506 433 L 500 437 L 494 440 L 491 441 L 487 440 L 487 435 L 488 432 L 491 427 L 495 423 L 502 418 L 509 414 L 521 414 Z" fill="#C5BFB0" stroke="#8C8070" stroke-width="1.5" fill-opacity="0.85" style="cursor:pointer" onmouseover="this.style.fill='#E8A87C'" onmouseout="this.style.fill='#C5BFB0'" />
    <path id="muscle_48" class="muscle" d="M 325 414 L 339 414 L 351 421 L 357 427 L 361 434 L 360 441 L 357 441 L 354 440 L 342 433 L 333 425 L 331 426 L 327 419 L 324 416 Z" fill="#C5BFB0" stroke="#8C8070" stroke-width="1.5" fill-opacity="0.85" style="cursor:pointer" onmouseover="this.style.fill='#E8A87C'" onmouseout="this.style.fill='#C5BFB0'" />
    <path id="muscle_49" class="muscle" d="M 521 396 L 516 401 L 516 402 L 507 411 L 501 415 L 495 418 L 490 418 L 488 416 L 487 414 L 487 407 L 491 400 L 494 397 L 500 393 L 502 393 L 506 395 L 512 396 Z" fill="#C5BFB0" stroke="#8C8070" stroke-width="1.5" fill-opacity="0.85" style="cursor:pointer" onmouseover="this.style.fill='#E8A87C'" onmouseout="this.style.fill='#C5BFB0'" />
    <path id="muscle_50" class="muscle" d="M 327 396 L 329 395 L 338 396 L 343 394 L 348 393 L 353 396 L 358 401 L 361 407 L 361 414 L 360 416 L 358 418 L 353 418 L 347 415 L 341 411 L 331 401 Z" fill="#C5BFB0" stroke="#8C8070" stroke-width="1.5" fill-opacity="0.85" style="cursor:pointer" onmouseover="this.style.fill='#E8A87C'" onmouseout="this.style.fill='#C5BFB0'" />
    <path id="muscle_51" class="muscle" d="M 602 360 L 610 383 L 614 408 L 609 438 L 596 475 L 591 471 L 598 461 L 601 453 L 604 434 L 602 405 L 596 380 L 598 364 Z" fill="#C5BFB0" stroke="#8C8070" stroke-width="1.5" fill-opacity="0.85" style="cursor:pointer" onmouseover="this.style.fill='#E8A87C'" onmouseout="this.style.fill='#C5BFB0'" />
    <path id="muscle_52" class="muscle" d="M 541 359 L 542 407 L 535 427 L 532 423 L 528 427 L 520 428 L 536 406 L 535 404 L 519 412 L 513 411 L 538 385 L 535 384 L 528 390 L 518 392 L 517 395 L 516 393 L 507 392 L 505 390 L 511 384 L 518 382 L 526 377 L 536 367 Z" fill="#C5BFB0" stroke="#8C8070" stroke-width="1.5" fill-opacity="0.85" style="cursor:pointer" onmouseover="this.style.fill='#E8A87C'" onmouseout="this.style.fill='#C5BFB0'" />
    <path id="muscle_53" class="muscle" d="M 307 359 L 313 368 L 323 378 L 337 384 L 343 390 L 341 392 L 331 393 L 322 391 L 314 385 L 311 385 L 311 388 L 317 392 L 334 412 L 325 411 L 314 404 L 311 406 L 322 419 L 326 430 L 317 424 L 314 424 L 313 427 L 306 406 Z" fill="#C5BFB0" stroke="#8C8070" stroke-width="1.5" fill-opacity="0.85" style="cursor:pointer" onmouseover="this.style.fill='#E8A87C'" onmouseout="this.style.fill='#C5BFB0'" />
    <path id="muscle_54" class="muscle" d="M 248 358 L 252 372 L 252 380 L 249 389 L 246 405 L 244 442 L 242 438 L 239 437 L 235 414 L 235 398 L 239 380 L 246 360 Z" fill="#C5BFB0" stroke="#8C8070" stroke-width="1.5" fill-opacity="0.85" style="cursor:pointer" onmouseover="this.style.fill='#E8A87C'" onmouseout="this.style.fill='#C5BFB0'" />
    <path id="muscle_55" class="muscle" d="M 550 335 L 570 345 L 581 356 L 593 379 L 598 400 L 601 432 L 599 448 L 591 464 L 584 464 L 583 459 L 578 456 L 576 457 L 556 429 L 557 426 L 550 405 L 547 377 L 544 376 L 546 348 Z" fill="#C5BFB0" stroke="#8C8070" stroke-width="1.5" fill-opacity="0.85" style="cursor:pointer" onmouseover="this.style.fill='#E8A87C'" onmouseout="this.style.fill='#C5BFB0'" />
    <path id="muscle_56" class="muscle" d="M 296 335 L 299 336 L 301 343 L 304 373 L 303 382 L 301 380 L 296 413 L 289 430 L 289 434 L 275 451 L 272 458 L 271 456 L 265 461 L 264 465 L 258 465 L 251 454 L 248 443 L 248 415 L 254 383 L 267 356 L 281 343 Z" fill="#C5BFB0" stroke="#8C8070" stroke-width="1.5" fill-opacity="0.85" style="cursor:pointer" onmouseover="this.style.fill='#E8A87C'" onmouseout="this.style.fill='#C5BFB0'" />
    <path id="muscle_57" class="muscle" d="M 547 333 L 543 347 L 532 365 L 517 378 L 499 384 L 501 385 L 497 386 L 496 384 L 493 384 L 492 386 L 487 385 L 489 383 L 475 382 L 455 377 L 441 370 L 437 363 L 444 367 L 458 371 L 480 372 L 492 370 L 504 366 L 517 359 L 530 347 L 541 332 Z" fill="#C5BFB0" stroke="#8C8070" stroke-width="1.5" fill-opacity="0.85" style="cursor:pointer" onmouseover="this.style.fill='#E8A87C'" onmouseout="this.style.fill='#C5BFB0'" />
    <path id="muscle_58" class="muscle" d="M 303 332 L 312 333 L 310 336 L 314 342 L 330 358 L 342 365 L 353 369 L 369 372 L 384 372 L 395 370 L 411 363 L 412 365 L 404 372 L 390 378 L 359 384 L 361 385 L 348 385 L 350 383 L 339 382 L 329 377 L 317 366 L 305 347 L 302 336 Z" fill="#C5BFB0" stroke="#8C8070" stroke-width="1.5" fill-opacity="0.85" style="cursor:pointer" onmouseover="this.style.fill='#E8A87C'" onmouseout="this.style.fill='#C5BFB0'" />
    <path id="muscle_59" class="muscle" d="M 514 269 L 539 310 L 515 292 L 538 318 L 518 313 L 538 323 L 478 319 L 442 328 L 434 335 L 472 323 L 508 321 L 538 328 L 516 337 L 516 341 L 537 334 L 512 360 L 479 371 L 443 364 L 477 357 L 505 344 L 456 359 L 433 358 L 428 328 L 432 296 L 441 291 L 470 292 L 435 288 L 441 276 L 455 266 L 489 261 Z" fill="#C5BFB0" stroke="#8C8070" stroke-width="1.5" fill-opacity="0.85" style="cursor:pointer" onmouseover="this.style.fill='#E8A87C'" onmouseout="this.style.fill='#C5BFB0'" />
    <path id="muscle_60" class="muscle" d="M 347 262 L 396 267 L 410 280 L 412 289 L 379 292 L 407 291 L 416 296 L 420 341 L 414 359 L 392 359 L 343 344 L 403 366 L 383 371 L 348 366 L 327 353 L 311 334 L 331 341 L 329 335 L 310 328 L 339 321 L 376 323 L 416 334 L 370 319 L 312 322 L 330 313 L 309 316 L 335 291 L 309 310 L 317 289 Z" fill="#C5BFB0" stroke="#8C8070" stroke-width="1.5" fill-opacity="0.85" style="cursor:pointer" onmouseover="this.style.fill='#E8A87C'" onmouseout="this.style.fill='#C5BFB0'" />
    <path id="muscle_61" class="muscle" d="M 526 251 L 545 256 L 566 270 L 579 289 L 583 290 L 579 280 L 564 263 L 537 250 L 556 251 L 571 259 L 585 274 L 598 300 L 602 317 L 600 345 L 593 370 L 585 356 L 595 355 L 587 351 L 592 328 L 590 313 L 584 348 L 555 317 L 536 277 L 511 258 Z" fill="#C5BFB0" stroke="#8C8070" stroke-width="1.5" fill-opacity="0.85" style="cursor:pointer" onmouseover="this.style.fill='#E8A87C'" onmouseout="this.style.fill='#C5BFB0'" />
    <path id="muscle_62" class="muscle" d="M 334 255 L 337 259 L 313 276 L 290 321 L 264 348 L 260 336 L 260 312 L 257 312 L 257 337 L 261 351 L 252 357 L 246 331 L 247 311 L 253 293 L 266 270 L 290 252 L 311 250 L 284 263 L 271 277 L 265 293 L 276 277 L 299 258 L 322 251 Z" fill="#C5BFB0" stroke="#8C8070" stroke-width="1.5" fill-opacity="0.85" style="cursor:pointer" onmouseover="this.style.fill='#E8A87C'" onmouseout="this.style.fill='#C5BFB0'" />
    <path id="muscle_63" class="muscle" d="M 465 213 L 466 221 L 469 232 L 475 242 L 478 245 L 481 253 L 475 254 L 467 254 L 459 256 L 455 255 L 455 249 L 459 230 Z" fill="#C5BFB0" stroke="#8C8070" stroke-width="1.5" fill-opacity="0.85" style="cursor:pointer" onmouseover="this.style.fill='#E8A87C'" onmouseout="this.style.fill='#C5BFB0'" />
    <path id="muscle_64" class="muscle" d="M 383 213 L 385 216 L 392 243 L 393 249 L 392 256 L 373 254 L 366 252 L 368 248 L 373 242 L 378 234 L 382 221 Z" fill="#C5BFB0" stroke="#8C8070" stroke-width="1.5" fill-opacity="0.85" style="cursor:pointer" onmouseover="this.style.fill='#E8A87C'" onmouseout="this.style.fill='#C5BFB0'" />
    <path id="muscle_65" class="muscle" d="M 471 212 L 474 215 L 508 232 L 522 241 L 519 243 L 513 244 L 508 247 L 494 251 L 490 251 L 489 252 L 485 251 L 484 247 L 475 235 L 471 227 L 469 219 Z" fill="#C5BFB0" stroke="#8C8070" stroke-width="1.5" fill-opacity="0.85" style="cursor:pointer" onmouseover="this.style.fill='#E8A87C'" onmouseout="this.style.fill='#C5BFB0'" />
    <path id="muscle_66" class="muscle" d="M 379 213 L 379 220 L 377 227 L 373 235 L 364 247 L 363 251 L 359 252 L 358 251 L 354 251 L 346 249 L 329 243 L 326 241 L 328 239 L 342 231 Z" fill="#C5BFB0" stroke="#8C8070" stroke-width="1.5" fill-opacity="0.85" style="cursor:pointer" onmouseover="this.style.fill='#E8A87C'" onmouseout="this.style.fill='#C5BFB0'" />
    <path id="muscle_67" class="muscle" d="M 396 192 L 408 202 L 416 204 L 437 203 L 445 199 L 452 192 L 451 200 L 449 203 L 435 248 L 426 266 L 422 266 L 416 255 L 405 224 L 400 205 L 395 194 Z" fill="#C5BFB0" stroke="#8C8070" stroke-width="1.5" fill-opacity="0.85" style="cursor:pointer" onmouseover="this.style.fill='#E8A87C'" onmouseout="this.style.fill='#C5BFB0'" />
    <path id="muscle_68" class="muscle" d="M 467 171 L 470 207 L 465 192 L 434 270 L 533 246 L 439 272 L 428 353 L 443 376 L 501 388 L 484 406 L 493 511 L 481 565 L 492 575 L 526 551 L 445 630 L 469 580 L 475 519 L 433 523 L 424 567 L 417 525 L 428 516 L 373 519 L 378 576 L 403 630 L 391 630 L 324 548 L 345 570 L 366 570 L 355 511 L 364 406 L 347 388 L 415 368 L 419 294 L 402 266 L 315 246 L 426 270 Z" fill="#C5BFB0" stroke="#8C8070" stroke-width="1.5" fill-opacity="0.85" style="cursor:pointer" onmouseover="this.style.fill='#E8A87C'" onmouseout="this.style.fill='#C5BFB0'" />
    <path id="muscle_69" class="muscle" d="M 427 472 L 425 482 L 425 500 L 427 509 L 431 515 L 439 518 L 448 518 L 467 515 L 473 513 L 475 511 L 479 497 L 479 477 L 477 473 L 472 471 L 456 469 L 432 469 Z" fill="#C5BFB0" stroke="#8C8070" stroke-width="1.5" fill-opacity="0.85" style="cursor:pointer" onmouseover="this.style.fill='#E8A87C'" onmouseout="this.style.fill='#C5BFB0'" />
    <path id="muscle_70" class="muscle" d="M 430 475 L 433 472 L 455 472 L 465 473 L 473 475 L 476 478 L 476 496 L 473 507 L 469 511 L 448 516 L 440 515 L 435 513 L 431 509 L 429 505 L 428 499 L 427 482 Z" fill="#C5BFB0" stroke="#8C8070" stroke-width="1.5" fill-opacity="0.85" style="cursor:pointer" onmouseover="this.style.fill='#E8A87C'" onmouseout="this.style.fill='#C5BFB0'" />
    <path id="muscle_71" class="muscle" d="M 372 472 L 369 477 L 369 497 L 372 509 L 375 513 L 381 515 L 400 518 L 413 517 L 419 513 L 422 506 L 423 500 L 423 481 L 421 472 L 417 469 L 392 469 Z" fill="#C5BFB0" stroke="#8C8070" stroke-width="1.5" fill-opacity="0.85" style="cursor:pointer" onmouseover="this.style.fill='#E8A87C'" onmouseout="this.style.fill='#C5BFB0'" />
    <path id="muscle_72" class="muscle" d="M 373 477 L 375 478 L 374 476 L 377 474 L 393 472 L 415 472 L 419 476 L 421 481 L 420 499 L 419 505 L 417 509 L 411 514 L 400 516 L 382 512 L 378 510 L 374 505 L 372 495 Z" fill="#C5BFB0" stroke="#8C8070" stroke-width="1.5" fill-opacity="0.85" style="cursor:pointer" onmouseover="this.style.fill='#E8A87C'" onmouseout="this.style.fill='#C5BFB0'" />
    <path id="muscle_73" class="muscle" d="M 427 421 L 425 428 L 425 446 L 426 462 L 429 465 L 432 466 L 454 466 L 464 468 L 475 468 L 477 466 L 479 459 L 479 444 L 478 440 L 474 435 L 457 425 L 443 420 L 431 419 Z" fill="#C5BFB0" stroke="#8C8070" stroke-width="1.5" fill-opacity="0.85" style="cursor:pointer" onmouseover="this.style.fill='#E8A87C'" onmouseout="this.style.fill='#C5BFB0'" />
    <path id="muscle_74" class="muscle" d="M 429 425 L 432 422 L 442 423 L 453 427 L 470 437 L 474 441 L 476 445 L 476 457 L 475 459 L 469 463 L 466 463 L 465 467 L 464 462 L 459 462 L 458 461 L 449 460 L 436 460 L 430 455 L 429 447 L 426 445 Z" fill="#C5BFB0" stroke="#8C8070" stroke-width="1.5" fill-opacity="0.85" style="cursor:pointer" onmouseover="this.style.fill='#E8A87C'" onmouseout="this.style.fill='#C5BFB0'" />
    <path id="muscle_75" class="muscle" d="M 427 383 L 425 401 L 427 411 L 430 414 L 437 415 L 450 419 L 470 430 L 478 429 L 481 422 L 482 409 L 479 397 L 476 392 L 458 384 L 440 379 L 433 379 L 430 380 Z" fill="#C5BFB0" stroke="#8C8070" stroke-width="1.5" fill-opacity="0.85" style="cursor:pointer" onmouseover="this.style.fill='#E8A87C'" onmouseout="this.style.fill='#C5BFB0'" />
    <path id="muscle_76" class="muscle" d="M 432 383 L 434 382 L 444 383 L 457 387 L 470 393 L 472 398 L 474 400 L 476 406 L 476 411 L 480 409 L 480 417 L 476 416 L 476 420 L 478 421 L 476 425 L 474 427 L 472 427 L 459 419 L 442 413 L 434 412 L 429 407 L 428 403 L 429 388 Z" fill="#C5BFB0" stroke="#8C8070" stroke-width="1.5" fill-opacity="0.85" style="cursor:pointer" onmouseover="this.style.fill='#E8A87C'" onmouseout="this.style.fill='#C5BFB0'" />
    <path id="muscle_77" class="muscle" d="M 416 379 L 403 380 L 375 390 L 369 397 L 366 411 L 368 425 L 372 430 L 383 429 L 370 440 L 369 458 L 373 468 L 416 466 L 422 461 L 423 428 L 419 420 L 405 420 L 382 428 L 391 422 L 418 414 L 421 411 L 423 401 L 421 383 Z" fill="#C5BFB0" stroke="#8C8070" stroke-width="1.5" fill-opacity="0.85" style="cursor:pointer" onmouseover="this.style.fill='#E8A87C'" onmouseout="this.style.fill='#C5BFB0'" />
    <path id="muscle_78" class="muscle" d="M 419 425 L 420 428 L 421 451 L 419 451 L 419 454 L 417 455 L 414 459 L 412 460 L 401 460 L 391 461 L 390 462 L 383 462 L 384 464 L 383 467 L 381 463 L 373 460 L 372 456 L 372 445 L 374 441 L 378 437 L 389 430 L 406 423 L 416 422 Z" fill="#C5BFB0" stroke="#8C8070" stroke-width="1.5" fill-opacity="0.85" style="cursor:pointer" onmouseover="this.style.fill='#E8A87C'" onmouseout="this.style.fill='#C5BFB0'" />
    <path id="muscle_79" class="muscle" d="M 415 382 L 419 388 L 419 396 L 421 397 L 422 400 L 418 409 L 414 412 L 406 413 L 392 418 L 376 427 L 373 426 L 370 420 L 370 414 L 368 415 L 368 411 L 372 411 L 373 402 L 376 398 L 375 395 L 382 391 L 397 385 L 409 382 Z" fill="#C5BFB0" stroke="#8C8070" stroke-width="1.5" fill-opacity="0.85" style="cursor:pointer" onmouseover="this.style.fill='#E8A87C'" onmouseout="this.style.fill='#C5BFB0'" />
    <path id="muscle_80" class="muscle" d="M 381 171 L 385 177 L 383 180 L 384 190 L 385 181 L 387 188 L 396 204 L 410 249 L 418 266 L 416 267 L 407 260 L 395 237 L 390 225 L 382 195 L 383 203 L 380 203 Z" fill="#C5BFB0" stroke="#8C8070" stroke-width="1.5" fill-opacity="0.85" style="cursor:pointer" onmouseover="this.style.fill='#E8A87C'" onmouseout="this.style.fill='#C5BFB0'" />
    <path id="muscle_81" class="muscle" d="M 417 39 L 446 43 L 465 58 L 474 74 L 477 102 L 478 83 L 479 110 L 475 104 L 475 115 L 481 112 L 484 116 L 478 145 L 473 146 L 475 130 L 472 130 L 464 173 L 443 195 L 431 201 L 411 199 L 390 180 L 381 168 L 376 130 L 373 129 L 373 148 L 364 127 L 364 115 L 373 113 L 372 103 L 369 110 L 371 77 L 372 101 L 373 78 L 380 62 L 397 46 Z" fill="#C5BFB0" stroke="#8C8070" stroke-width="1.5" fill-opacity="0.85" style="cursor:pointer" onmouseover="this.style.fill='#E8A87C'" onmouseout="this.style.fill='#C5BFB0'" />
  </g>
</svg>